<?xml version="1.0" encoding="UTF-8" standalone="no"?>
<!-- License: CC Attribution. Made by salesforce: https://lightningdesignsystem.com/ -->

<svg
   fill="#000000"
   width="800px"
   height="800px"
   viewBox="0 0 52 52"
   enable-background="new 0 0 52 52"
   xml:space="preserve"
   version="1.1"
   id="svg2"
   sodipodi:docname="delete.svg"
   inkscape:version="1.4.4 (dcaf3e7d9e, 2026-05-05)"
   xmlns:inkscape="http://www.inkscape.org/namespaces/inkscape"
   xmlns:sodipodi="http://sodipodi.sourceforge.net/DTD/sodipodi-0.dtd"
   xmlns="http://www.w3.org/2000/svg"
   xmlns:svg="http://www.w3.org/2000/svg"><defs
   id="defs2" /><sodipodi:namedview
   id="namedview2"
   pagecolor="#ffffff"
   bordercolor="#000000"
   borderopacity="0.25"
   inkscape:showpageshadow="2"
   inkscape:pageopacity="0.0"
   inkscape:pagecheckerboard="0"
   inkscape:deskcolor="#d1d1d1"
   inkscape:zoom="0.985"
   inkscape:cx="400"
   inkscape:cy="400"
   inkscape:window-width="1920"
   inkscape:window-height="1006"
   inkscape:window-x="0"
   inkscape:window-y="0"
   inkscape:window-maximized="1"
   inkscape:current-layer="svg2" />
<g
   id="g2"
   transform="translate(0,-1.82)">
	<path
   d="M 45.5,10 H 33 V 6 C 33,3.8 31.2,2 29,2 h -6 c -2.2,0 -4,1.8 -4,4 v 4 H 6.5 C 5.7,10 5,10.7 5,11.5 v 3 C 5,15.3 5.7,16 6.5,16 h 39 c 0.8,0 1.5,-0.7 1.5,-1.5 v -3 C 47,10.7 46.3,10 45.5,10 Z M 23,7 c 0,-0.6 0.4,-1 1,-1 h 4 c 0.6,0 1,0.4 1,1 v 3 h -6 z"
   id="path1" />
	<path
   d="m 41.5,20 h -31 C 9.7,20 9,20.7 9,21.5 V 45 c 0,2.8 2.2,5 5,5 h 24 c 2.8,0 5,-2.2 5,-5 V 21.5 C 43,20.7 42.3,20 41.5,20 Z M 23,42 c 0,0.6 -0.4,1 -1,1 h -2 c -0.6,0 -1,-0.4 -1,-1 V 28 c 0,-0.6 0.4,-1 1,-1 h 2 c 0.6,0 1,0.4 1,1 z m 10,0 c 0,0.6 -0.4,1 -1,1 h -2 c -0.6,0 -1,-0.4 -1,-1 V 28 c 0,-0.6 0.4,-1 1,-1 h 2 c 0.6,0 1,0.4 1,1 z"
   id="path2" />
</g>
</svg>
