<?xml version="1.0" encoding="utf-8"?>

<!DOCTYPE svg PUBLIC "-//W3C//DTD SVG 1.1//EN" "http://www.w3.org/Graphics/SVG/1.1/DTD/svg11.dtd">

<!-- License: MIT. Made by elusiveicons: https://elusiveicons.com -->
<svg version="1.1"
	 id="svg2" xmlns:dc="http://purl.org/dc/elements/1.1/" xmlns:cc="http://creativecommons.org/ns#" xmlns:rdf="http://www.w3.org/1999/02/22-rdf-syntax-ns#" xmlns:svg="http://www.w3.org/2000/svg" xmlns:sodipodi="http://sodipodi.sourceforge.net/DTD/sodipodi-0.dtd" xmlns:inkscape="http://www.inkscape.org/namespaces/inkscape" sodipodi:docname="fire.svg" inkscape:version="0.48.4 r9939"
	 xmlns="http://www.w3.org/2000/svg" xmlns:xlink="http://www.w3.org/1999/xlink"
	 viewBox="0 0 1200 1200" xml:space="preserve">
<path id="path8046" fill="currentColor" inkscape:connector-curvature="0" d="M381.64,1200C135.779,1061.434,71.049,930.278,108.057,751.148
	c27.321-132.271,116.782-239.886,125.36-371.903c38.215,69.544,54.183,119.691,58.453,192.364
	C413.413,422.695,493.731,216.546,498.487,0c0,0,316.575,186.01,337.348,466.98c27.253-57.913,40.972-149.892,13.719-209.504
	c81.757,59.615,560.293,588.838-64.818,942.524c117.527-228.838,30.32-537.611-173.739-680.218
	c13.628,61.319-10.265,290.021-100.542,390.515c25.014-167.916-23.8-238.918-23.8-238.918s-16.754,94.054-81.758,189.065
	C345.537,947.206,304.407,1039.291,381.64,1200L381.64,1200z"/>
</svg>
