<svg xmlns="http://www.w3.org/2000/svg" viewBox="-86 27 715 492" width="48" height="33">
  <path style="fill:currentColor;stroke:currentColor;stroke-width:8.1" d="m 274.32855,146.64552 c 0.81393,0.002 0.81393,0.002 1.64431,0.003 8.12956,0.0299 16.06822,0.25404 24.04425,1.91069 0.57391,0.1179 1.14783,0.23579 1.73913,0.35726 22.18416,4.69708 42.5864,14.16149 59.79392,28.54029 0.54369,0.45073 1.08738,0.90146 1.64755,1.36586 1.47133,1.25177 2.90468,2.53152 4.32654,3.8357 0.2961,0.27071 0.59221,0.54143 0.89728,0.82035 4.9856,4.59027 9.33755,9.44466 13.44052,14.78432 0.25317,0.32231 0.50634,0.64462 0.76718,0.97671 4.33598,5.52476 7.8818,11.36452 11.18099,17.51772 0.23343,0.43276 0.46687,0.86552 0.70738,1.31139 9.6392,18.09875 13.9046,37.78171 13.81711,58.03695 -8.6e-4,0.53687 -0.003,1.07374 -0.004,1.62688 -0.0298,7.73777 -0.24712,15.24576 -1.97502,22.82767 -0.18281,0.8461 -0.18281,0.8461 -0.3693,1.7093 -5.50249,25.16353 -17.77557,46.7852 -36.07261,65.33301 -0.49671,0.50438 -0.99342,1.00875 -1.50519,1.5284 -3.46361,3.43524 -7.12086,6.51433 -11.04038,9.45267 -0.32393,0.24501 -0.64785,0.49003 -0.98158,0.74247 -23.52625,17.68212 -52.20332,26.72178 -81.87149,26.60183 -0.55495,-8.6e-4 -1.10989,-0.003 -1.68166,-0.003 -8.00155,-0.0288 -15.75438,-0.25023 -23.59618,-1.9107 -0.85077,-0.16762 -0.85077,-0.16762 -1.71872,-0.33863 -22.52803,-4.4834 -43.00664,-14.01502 -60.41175,-28.55891 -0.54369,-0.45073 -1.08738,-0.90147 -1.64754,-1.36586 -1.47133,-1.25177 -2.90469,-2.53152 -4.32655,-3.83569 -0.2961,-0.27073 -0.5922,-0.54145 -0.89728,-0.82037 -4.9856,-4.59027 -9.33756,-9.44465 -13.44052,-14.78431 -0.25317,-0.32231 -0.50634,-0.64463 -0.76718,-0.9767 -8.44394,-10.759 -21.40174,-29.24135 -20.45249,-43.31557 0.87869,-3.86683 3.49643,-6.74097 6.88187,-8.87922 1.59962,-0.53081 3.03049,-0.93523 4.66726,-1.26427 0.42412,-0.0926 0.84825,-0.18514 1.28524,-0.28051 1.20077,-0.26104 2.40336,-0.51429 3.60603,-0.76703 0.77511,-0.19779 0.77511,-0.19779 1.56587,-0.39959 4.3468,-1.10339 9.34251,-1.67473 13.55604,0.11061 5.0715,3.04586 7.43356,7.74226 9.70788,12.89554 4.92907,10.9461 11.20823,20.10457 19.37844,29.00592 0.34654,0.37772 0.69308,0.75544 1.05013,1.1446 16.28133,16.66131 41.07703,25.64453 64.37074,26.55415 26.27217,0.61128 50.57611,-9.29999 69.59341,-26.54285 15.58613,-14.64741 26.63846,-36.55075 27.57704,-57.64694 0.0275,-2.43356 0.0511,-4.8666 0.0531,-7.30031 4e-4,-0.44039 8e-4,-0.88079 8.6e-4,-1.33453 -0.01,-6.57014 -0.29655,-12.85937 -1.9428,-19.25497 -0.0994,-0.41572 -0.19868,-0.83143 -0.30104,-1.25975 -1.6624,-6.88573 -4.26156,-13.20284 -7.46527,-19.54648 -0.50826,-1.00912 -0.50826,-1.00912 -1.02679,-2.03863 -11.4628,-21.57736 -31.98811,-37.1995 -55.61805,-44.73546 -22.64601,-6.78994 -45.64697,-4.65466 -66.6453,5.81181 -3.77984,1.944 -7.34957,4.1416 -10.86537,6.50195 -0.44502,0.29587 -0.89004,0.59173 -1.34855,0.89656 -0.40594,0.28078 -0.81187,0.56155 -1.23011,0.85085 -0.36083,0.24836 -0.72168,0.49673 -1.09345,0.75263 -0.98163,0.77953 -0.98163,0.77953 -0.77111,2.4848 0.71085,0.92023 0.71085,0.92023 1.70748,1.80284 0.37309,0.35149 0.74619,0.70298 1.1306,1.06511 0.40879,0.37747 0.81758,0.75493 1.23876,1.14383 0.85777,0.8107 1.71538,1.62158 2.57282,2.43259 1.3554,1.27198 2.71309,2.54153 4.07437,3.80762 1.31319,1.22462 2.61665,2.45838 3.91947,3.69332 0.40274,0.36928 0.80549,0.73855 1.22044,1.11902 3.25224,3.09688 5.6973,6.61955 6.61588,11.00215 -0.11133,4.09242 -0.79561,7.16101 -3.75014,10.20219 -2.89094,2.53421 -5.47693,3.75078 -9.43686,3.7645 -0.96847,0.008 -0.96847,0.008 -1.9565,0.015 -0.70237,-5.2e-4 -1.40474,-8.7e-4 -2.1284,-0.002 -0.74443,0.003 -1.48885,0.008 -2.25583,0.0118 -2.03799,0.009 -4.07581,0.0129 -6.1138,0.0137 -1.27487,8.2e-4 -2.54974,0.003 -3.8246,0.006 -4.45233,0.0107 -8.90461,0.0154 -13.35694,0.0145 -4.14249,-6.9e-4 -8.2848,0.0115 -12.42724,0.0297 -3.56275,0.0151 -7.12544,0.0213 -10.68822,0.0206 -2.12511,-2.9e-4 -4.25006,0.003 -6.37513,0.0152 -2.37232,0.0133 -4.74437,0.008 -7.11671,8.7e-4 -0.69875,0.007 -1.39749,0.013 -2.11741,0.0197 -4.97885,-0.0371 -8.30993,-0.79468 -11.91162,-4.20164 -3.10704,-4.46582 -3.36019,-8.3368 -3.33096,-13.58524 -0.004,-1.04683 -0.004,-1.04683 -0.009,-2.1148 -0.007,-1.90227 -0.005,-3.80433 6.8e-4,-5.7066 0.004,-1.99792 3.3e-4,-3.99583 -0.003,-5.99375 -0.003,-3.35413 8.6e-4,-6.70818 0.01,-10.06229 0.01,-3.86872 0.007,-7.73728 -0.003,-11.60599 -0.008,-3.33142 -0.009,-6.66277 -0.004,-9.99418 0.003,-1.98542 0.003,-3.97076 -0.003,-5.95617 -0.004,-2.21461 0.003,-4.42892 0.0123,-6.64352 -0.003,-0.65165 -0.007,-1.30329 -0.011,-1.97468 0.0405,-4.86829 0.70664,-9.02495 4.42475,-12.62196 3.68649,-2.4665 6.89067,-3.27841 11.35076,-2.88976 8.22488,1.72402 15.30497,11.26581 21.05865,16.86894 0.80185,0.77864 1.60384,1.55715 2.40597,2.33551 1.93776,1.88093 3.87362,3.76365 5.8084,5.64745 0.28825,-0.20926 0.57651,-0.41852 0.8735,-0.63412 0.84635,-0.61426 1.69294,-1.22821 2.53971,-1.84194 0.8567,-0.6219 1.71234,-1.24517 2.56641,-1.87044 22.6308,-16.51926 48.52828,-26.58312 77.06014,-26.46551 z"/>
</svg>
