<?xml version="1.0" encoding="utf-8"?>

<!-- Split from revert.svg (License: MIT, developmentseed: https://github.com/developmentseed/collecticons-lib).
     This is the circular-arrow subpath only, with the checkmark subpath removed,
     for the finished-banner revert icon's wipe animation (RevertButton in controls.py). -->
<svg viewBox="0 0 16 16" version="1.1" xmlns="http://www.w3.org/2000/svg" xmlns:xlink="http://www.w3.org/1999/xlink">
  <rect width="16" height="16" id="icon-bound" fill="none" />
  <path fill="currentColor" d="M0,0l2,0l0,2.709c1.466,-1.662 3.609,-2.709 6,-2.709c4.419,0 8,3.581 8,8c0,4.419 -3.581,8 -8,8c-4.419,0 -8,-3.581 -8,-8l2,0c0,1.603 0.624,3.11 1.756,4.244c1.132,1.134 2.641,1.756 4.244,1.756c1.603,0 3.109,-0.625 4.244,-1.756c1.131,-1.135 1.756,-2.641 1.756,-4.244c0,-1.603 -0.625,-3.109 -1.756,-4.244c-1.135,-1.131 -2.641,-1.756 -4.244,-1.756c-1.603,0 -3.109,0.625 -4.244,1.756c-0.078,0.078 -0.156,0.16 -0.228,0.244l2.472,0l0,2l-6,0l0,-6Z" />
</svg>
