<?xml version="1.0" encoding="UTF-8" standalone="no"?>
<!-- Created with Inkscape (http://www.inkscape.org/) -->

<svg
   version="1.1"
   id="svg1"
   width="250"
   height="250"
   viewBox="0 0 250 250"
   sodipodi:docname="fabulor_logo_centered.svg"
   inkscape:version="1.4.4 (dcaf3e7d9e, 2026-05-05)"
   xmlns:inkscape="http://www.inkscape.org/namespaces/inkscape"
   xmlns:sodipodi="http://sodipodi.sourceforge.net/DTD/sodipodi-0.dtd"
   xmlns="http://www.w3.org/2000/svg"
   xmlns:svg="http://www.w3.org/2000/svg">
  <defs
     id="defs1">
    <inkscape:path-effect
       effect="fillet_chamfer"
       id="path-effect5"
       is_visible="true"
       lpeversion="1"
       nodesatellites_param="F,0,0,1,0,0,0,1 @ F,0,0,1,0,0,0,1 @ F,0,0,1,0,0,0,1 @ F,0,0,1,0,0,0,1 @ F,0,0,1,0,0,0,1 @ F,0,0,1,0,0,0,1 @ F,0,0,1,0,0,0,1 @ F,0,0,1,0,0,0,1 @ F,0,0,1,0,0,0,1 @ F,0,0,1,0,0,0,1 @ F,0,0,1,0,0,0,1 @ F,0,0,1,0,0,0,1 @ F,0,0,1,0,0,0,1 @ F,0,0,1,0,0,0,1 @ F,0,0,1,0,0,0,1 @ F,0,0,1,0,0,0,1 @ F,0,0,1,0,0,0,1 @ F,0,0,1,0,0,0,1 @ F,0,0,1,0,0,0,1 @ F,0,0,1,0,0,0,1 @ F,0,0,1,0,0,0,1 @ F,0,0,1,0,0,0,1 @ F,0,0,1,0,0,0,1 @ F,0,0,1,0,0,0,1 @ F,0,0,1,0,0,0,1 @ F,0,0,1,0,0,0,1 @ F,0,0,1,0,0,0,1 @ F,0,0,1,0,0,0,1 @ F,0,0,1,0,0,0,1 @ F,0,0,1,0,0,0,1 @ F,0,0,1,0,0,0,1 @ F,0,0,1,0,0,0,1 @ F,0,0,1,0,0,0,1 @ F,0,0,1,0,0,0,1 @ F,0,0,1,0,0,0,1 @ F,0,0,1,0,0,0,1 @ F,0,0,1,0,0,0,1 @ F,0,0,1,0,0,0,1 @ F,0,0,1,0,0,0,1 @ F,0,0,1,0,0,0,1 @ F,0,0,1,0,0,0,1 @ F,0,0,1,0,0,0,1 @ F,0,0,1,0,0,0,1 @ F,0,0,1,0,0,0,1 @ F,0,0,1,0,0,0,1 @ F,0,0,1,0,0,0,1 @ F,0,0,1,0,0,0,1 @ F,0,0,1,0,0,0,1 @ F,0,0,1,0,0,0,1 @ F,0,0,1,0,0,0,1 @ F,0,0,1,0,0,0,1 @ F,0,0,1,0,0,0,1"
       radius="0"
       unit="px"
       method="auto"
       mode="F"
       chamfer_steps="1"
       flexible="false"
       use_knot_distance="true"
       apply_no_radius="true"
       apply_with_radius="true"
       only_selected="false"
       hide_knots="false" />
  </defs>
  <sodipodi:namedview
     id="namedview1"
     pagecolor="#ffffff"
     bordercolor="#000000"
     borderopacity="0.25"
     inkscape:showpageshadow="2"
     inkscape:pageopacity="0.0"
     inkscape:pagecheckerboard="0"
     inkscape:deskcolor="#d1d1d1"
     inkscape:zoom="0.75048305"
     inkscape:cx="-75.951083"
     inkscape:cy="97.936923"
     inkscape:window-width="1920"
     inkscape:window-height="1006"
     inkscape:window-x="0"
     inkscape:window-y="0"
     inkscape:window-maximized="1"
     inkscape:current-layer="g1" />
  <g
     inkscape:groupmode="layer"
     inkscape:label="Image"
     id="g1">
    <path
       style="display:inline;fill:#000000"
       d="m 110.12874,108.58933 c 1.77105,0.043 2.1176,-6.40316 2.73535,-11.90047 1.79112,-15.93902 4.4471,-18.54011 18.11988,-17.74546 9.83187,0.57141 10.58246,0.14689 14.08668,-7.9675 1.4756,-3.41688 3.09314,-5.72013 4.02288,-5.72824 1.33701,-0.0117 1.53676,-2.09993 1.42507,-14.898 -0.1261,-14.44986 -0.19777,-14.92805 -2.45466,-16.37884 -1.27863,-0.82192 -2.88624,-3.31061 -3.57247,-5.5304 -2.41909,-7.82516 -7.93471,-9.61983 -19.76105,-6.4298 -14.16824,3.82171 -23.03731,12.89847 -26.77518,27.40219 -1.74964,6.78895 -1.79842,24.71182 -0.11646,42.78315 0.6138,6.59489 1.12973,12.74599 1.14649,13.66908 0.57254,9.99923 7.20018,2.76083 11.14347,2.72429 z m -8.20178,-46.18018 c 1.22391,-19.06226 9.06472,-30.61876 23.57395,-34.74547 4.25405,-1.20994 4.81431,-0.53198 4.87039,5.89368 0.0456,5.22788 -1.23686,7.47396 -4.67842,8.19356 -4.65882,0.97412 -12.48022,6.99578 -15.94041,12.27246 -1.7894,2.72878 -3.95838,7.58539 -4.81995,10.79247 -2.28011,8.48743 -3.63536,7.40223 -3.00556,-2.4067 z m 87.17823,0.53724 c 2.39228,-4.72682 3.30864,-13.08946 2.13115,-19.44883 -3.41389,-18.43767 -27.72832,-21.09745 -35.78498,-18.2098 l -3.13749,1.12454 0.81034,7.14609 c 1.05834,9.3331 1.16466,24.31745 0.23637,33.31869 -0.85774,8.31733 -1.17967,8.04071 9.46713,8.1351 1.7217,0.0153 20.22274,-0.10248 26.27748,-12.06579 z m -6.60799,-4.60285 c -1.80209,-2.13451 -2.0121,-15.8042 -0.27005,-17.57693 2.3684,-2.4101 3.71658,0.84846 3.7891,9.15826 0.0741,8.49151 -1.09543,11.28939 -3.51905,8.41867 z"
       id="path1"
       inkscape:transform-center-x="-2.9003057"
       inkscape:transform-center-y="-7.2733113"
       sodipodi:nodetypes="sssssssssscssssssssssscsssssssss" />
    <path
       id="path8"
       style="display:inline;fill:#000000;stroke-width:8.1"
       d="m 104.99805,99.13867 c 0.14997,0.59988 1.29302,4.11389 -5.41797,7.2793 2.33895,3.88736 3.26273,8.31671 4.14453,12.70508 1.42418,7.51235 2.24786,13.4022 2.76622,15.28141 0,0 0.0486,1.19498 0.44077,1.56602 0.1493,0.14125 0.49499,-0.0357 0.78552,-0.0907 1.93861,-0.4268 4.39912,-1.3119 6.3415,-1.72365 0.3051,-0.061 0.60424,-0.13724 0.90039,-0.22461 0.01,-0.0607 0.0166,-0.12213 0.0195,-0.18359 0.015,-1e-5 0.0299,1e-5 0.0449,0 -0.82305,-5.46614 -1.70956,-10.92277 -2.7793,-16.34961 -1.14131,-5.78994 -2.53437,-11.63317 -5.98633,-16.54492 -0.82331,-0.98797 -1.15643,-1.52556 -1.25976,-1.71485 z"
       sodipodi:nodetypes="scccscccccsccs" />
    <path
       id="path39"
       style="display:inline;fill:#000000;stroke-width:8.1"
       d="m 158.08984,127.33789 c -5.3098,1.00766 -10.60774,2.30938 -15.88867,3.50391 -7.76039,1.75859 -22.39106,5.02823 -31.5957,7.84765 -9.20464,2.81942 -15.93993,5.70089 -23.03516,10.19141 -7.09523,4.49052 -13.58095,9.81116 -18.81445,16.23047 -15.66565,19.21519 -15.94236,46.4035 -2.79297,59.66992 10.11782,10.20788 30.65355,13.13278 45.99132,-2.91493 15.50401,-19.78956 10.19563,-45.13105 6.5204,-68.0089 -0.15341,-1.30988 -0.46903,-2.59139 -0.72264,-3.88481 -0.0492,-0.2939 -0.099,-0.58894 -0.13867,-0.88477 -7.46486,2.20755 -5.9433,1.68741 -8.06445,2.29883 0.54197,3.4974 1.1986,5.65127 1.58984,8.48242 0.97571,5.44505 1.58126,11.05757 2.37695,16.55664 1.10329,7.56688 1.24313,16.77884 -0.19921,24.19727 -1.59268,8.19166 -5.87565,14.41526 -11.16016,18.72851 -6.74665,5.50667 -20.19536,10.88989 -30.64562,-0.63953 -3.6631,-4.04137 -5.73586,-9.95513 -6.48047,-15.35851 -0.89,-6.4584 0.86805,-13.20104 2.93273,-19.38477 1.60209,-4.79826 4.22132,-9.32047 7.42383,-13.23633 4.7035,-5.75119 10.43509,-10.50803 16.89062,-14.54297 6.45553,-4.03494 12.37725,-6.62195 21.11914,-9.26757 15.02458,-4.34472 30.36819,-7.43826 45.59571,-10.96876 0.80603,-0.18759 1.21219,-0.11855 1.72477,-0.56992 -0.54505,-2.49682 -1.16265,-5.66302 -1.67703,-8.16624 -0.4193,-0.1087 -0.52096,0.14558 -0.95011,0.12098 z"
       sodipodi:nodetypes="sssssscccccccsssssssssccs" />
  </g>
</svg>
