<?xml version="1.0" encoding="UTF-8" standalone="no"?>
<!-- Created with Inkscape (http://www.inkscape.org/) -->

<svg
   version="1.1"
   id="svg1"
   width="250"
   height="250"
   viewBox="0 0 250 250"
   sodipodi:docname="fabulorLARGER.svg"
   inkscape:version="1.4.4 (dcaf3e7d9e, 2026-05-05)"
   xmlns:inkscape="http://www.inkscape.org/namespaces/inkscape"
   xmlns:sodipodi="http://sodipodi.sourceforge.net/DTD/sodipodi-0.dtd"
   xmlns="http://www.w3.org/2000/svg"
   xmlns:svg="http://www.w3.org/2000/svg">
  <defs
     id="defs1">
    <inkscape:path-effect
       effect="fillet_chamfer"
       id="path-effect5"
       is_visible="true"
       lpeversion="1"
       nodesatellites_param="F,0,0,1,0,0,0,1 @ F,0,0,1,0,0,0,1 @ F,0,0,1,0,0,0,1 @ F,0,0,1,0,0,0,1 @ F,0,0,1,0,0,0,1 @ F,0,0,1,0,0,0,1 @ F,0,0,1,0,0,0,1 @ F,0,0,1,0,0,0,1 @ F,0,0,1,0,0,0,1 @ F,0,0,1,0,0,0,1 @ F,0,0,1,0,0,0,1 @ F,0,0,1,0,0,0,1 @ F,0,0,1,0,0,0,1 @ F,0,0,1,0,0,0,1 @ F,0,0,1,0,0,0,1 @ F,0,0,1,0,0,0,1 @ F,0,0,1,0,0,0,1 @ F,0,0,1,0,0,0,1 @ F,0,0,1,0,0,0,1 @ F,0,0,1,0,0,0,1 @ F,0,0,1,0,0,0,1 @ F,0,0,1,0,0,0,1 @ F,0,0,1,0,0,0,1 @ F,0,0,1,0,0,0,1 @ F,0,0,1,0,0,0,1 @ F,0,0,1,0,0,0,1 @ F,0,0,1,0,0,0,1 @ F,0,0,1,0,0,0,1 @ F,0,0,1,0,0,0,1 @ F,0,0,1,0,0,0,1 @ F,0,0,1,0,0,0,1 @ F,0,0,1,0,0,0,1 @ F,0,0,1,0,0,0,1 @ F,0,0,1,0,0,0,1 @ F,0,0,1,0,0,0,1 @ F,0,0,1,0,0,0,1 @ F,0,0,1,0,0,0,1 @ F,0,0,1,0,0,0,1 @ F,0,0,1,0,0,0,1 @ F,0,0,1,0,0,0,1 @ F,0,0,1,0,0,0,1 @ F,0,0,1,0,0,0,1 @ F,0,0,1,0,0,0,1 @ F,0,0,1,0,0,0,1 @ F,0,0,1,0,0,0,1 @ F,0,0,1,0,0,0,1 @ F,0,0,1,0,0,0,1 @ F,0,0,1,0,0,0,1 @ F,0,0,1,0,0,0,1 @ F,0,0,1,0,0,0,1 @ F,0,0,1,0,0,0,1 @ F,0,0,1,0,0,0,1"
       radius="0"
       unit="px"
       method="auto"
       mode="F"
       chamfer_steps="1"
       flexible="false"
       use_knot_distance="true"
       apply_no_radius="true"
       apply_with_radius="true"
       only_selected="false"
       hide_knots="false" />
  </defs>
  <sodipodi:namedview
     id="namedview1"
     pagecolor="#ffffff"
     bordercolor="#000000"
     borderopacity="0.25"
     inkscape:showpageshadow="2"
     inkscape:pageopacity="0.0"
     inkscape:pagecheckerboard="0"
     inkscape:deskcolor="#d1d1d1"
     inkscape:zoom="2.1226866"
     inkscape:cx="63.598649"
     inkscape:cy="121.77963"
     inkscape:window-width="1920"
     inkscape:window-height="1006"
     inkscape:window-x="0"
     inkscape:window-y="0"
     inkscape:window-maximized="1"
     inkscape:current-layer="g1" />
  <g
     inkscape:groupmode="layer"
     inkscape:label="Image"
     id="g1">
    <path
       style="display:inline;fill:#000000;stroke-width:1.14621"
       d="m 108.67996,104.97857 c 2.02999,0.0493 2.42721,-7.339371 3.13529,-13.640442 2.053,-18.269467 5.09731,-21.250862 20.76919,-20.340026 11.26939,0.654957 12.12972,0.168367 16.14629,-9.132428 1.69135,-3.916463 3.54539,-6.556471 4.61106,-6.565767 1.5325,-0.01341 1.76146,-2.406962 1.63344,-17.076239 -0.14454,-16.562575 -0.22669,-17.110681 -2.81356,-18.773591 -1.46558,-0.942093 -3.30823,-3.794655 -4.0948,-6.339001 C 145.29408,4.1417993 138.97203,2.0847303 125.41655,5.7411749 83.726941,16.98644 84.693422,62.32145 94.593082,86.18832 c 0.703542,7.55913 1.294914,14.60958 1.314125,15.66764 0.656249,11.46121 8.252923,3.16449 12.772753,3.12261 z M 99.278995,52.046378 c 1.402865,-21.849355 10.390075,-35.095532 27.020695,-39.825609 4.87604,-1.386845 5.51822,-0.60976 5.58249,6.755395 0.0522,5.99225 -1.4177,8.566729 -5.36244,9.391543 -5.34,1.116546 -14.30496,8.018633 -18.27106,14.066817 -2.05103,3.127755 -4.53714,8.69445 -5.52468,12.370438 -2.61348,9.728377 -4.166886,8.484511 -3.445005,-2.758584 z m 99.924565,0.61579 c 2.74206,-5.417929 3.7924,-15.003272 2.44275,-22.292446 C 197.73328,9.236279 169.86383,6.1876123 160.6292,9.4974659 l -3.59622,1.2889591 0.92883,8.19092 c 1.21307,10.697694 1.33494,27.872907 0.27092,38.190219 -0.98314,9.533407 -1.35214,9.216344 10.85132,9.324534 1.97344,0.01754 23.17952,-0.117464 30.11951,-13.82993 z m -7.57414,-5.275834 c -2.06558,-2.446596 -2.30629,-18.114933 -0.30953,-20.146854 2.71468,-2.762481 4.25998,0.972513 4.3431,10.49729 0.0849,9.733055 -1.25559,12.940012 -4.03357,9.649564 z"
       id="path1"
       inkscape:transform-center-x="-3.3243584"
       inkscape:transform-center-y="-8.3367436"
       sodipodi:nodetypes="ssssssssscssssssssssscsssssssss" />
    <path
       id="path8"
       style="display:inline;fill:#000000;stroke-width:9.2843"
       d="m 102.79911,94.146124 c 0.1719,0.687588 1.48208,4.715383 -6.210125,8.343606 2.680926,4.45574 3.739765,9.5327 4.750495,14.56269 1.63241,8.61074 2.57652,15.36174 3.17068,17.51571 0,0 0.0557,1.3697 0.50521,1.79499 0.17113,0.1619 0.56736,-0.041 0.90037,-0.10393 2.22205,-0.4892 5.04232,-1.50371 7.26869,-1.97567 0.34971,-0.0699 0.69259,-0.15731 1.03203,-0.25745 0.0115,-0.0696 0.0191,-0.13998 0.0223,-0.21043 0.0172,-1e-5 0.0343,1e-5 0.0515,0 -0.94338,-6.26535 -1.95952,-12.51979 -3.18566,-18.74008 -1.30818,-6.63649 -2.90492,-13.33407 -6.86159,-18.963963 -0.94369,-1.132421 -1.32551,-1.748612 -1.44395,-1.965578 z"
       sodipodi:nodetypes="scccscccccsccs" />
    <path
       id="path39"
       style="display:inline;fill:#000000;stroke-width:9.2843"
       d="m 163.65346,126.46836 c -6.08615,1.15499 -12.1587,2.64703 -18.21176,4.01621 -8.89504,2.01572 -25.66486,5.76341 -36.2153,8.99506 -10.550456,3.23164 -18.270514,6.53442 -26.403139,11.68149 -8.132624,5.14708 -15.566621,11.24566 -21.565312,18.60353 -17.956127,22.02465 -18.273295,53.18816 -3.201331,68.39427 11.597148,11.70038 35.135409,15.05292 52.715712,-3.34112 17.77086,-22.683 11.68634,-51.72967 7.47376,-77.95249 -0.17585,-1.5014 -0.53761,-2.97028 -0.8283,-4.45281 -0.0564,-0.33687 -0.11348,-0.67505 -0.15895,-1.01414 -8.5563,2.53033 -6.81227,1.93414 -9.24356,2.63494 0.62121,4.00877 1.37386,6.47755 1.8223,9.72264 1.11836,6.24118 1.81245,12.6743 2.72448,18.97739 1.2646,8.67324 1.42489,19.23208 -0.22834,27.73516 -1.82555,9.38936 -6.73473,16.52291 -12.791887,21.4668 -7.733076,6.31181 -23.148123,12.48211 -35.126316,-0.73303 -4.198683,-4.63226 -6.574501,-11.41067 -7.42798,-17.60408 -1.020127,-7.40268 0.994967,-15.13117 3.361525,-22.21902 1.836331,-5.49981 4.838519,-10.68322 8.509268,-15.17161 5.391199,-6.59208 11.960806,-12.04441 19.3602,-16.6693 7.399395,-4.62489 14.18693,-7.59015 24.20697,-10.62259 17.22132,-4.97996 34.80833,-8.5258 52.26226,-12.5725 0.92388,-0.21501 1.38943,-0.13588 1.97696,-0.65325 -0.62475,-2.86188 -1.33265,-6.49101 -1.92223,-9.36022 -0.48061,-0.12459 -0.59714,0.16686 -1.08903,0.13867 z"
       sodipodi:nodetypes="sssssscccccccsssssssssccs" />
  </g>
</svg>
